<svg xmlns="http://www.w3.org/2000/svg" width="1em" height="1em" fill="none" aria-hidden="true" viewBox="0 0 24 24"><path fill="currentColor" fill-rule="evenodd" d="M2 4a2 2 0 0 1 2-2h5a2 2 0 0 1 2 2v5a2 2 0 0 1-2 2H4a2 2 0 0 1-2-2V4Zm7 0H4v5h5V4ZM2 15a2 2 0 0 1 2-2h5a2 2 0 0 1 2 2v5a2 2 0 0 1-2 2H4a2 2 0 0 1-2-2v-5Zm7 0H4v5h5v-5Zm6-13a2 2 0 0 0-2 2v5a2 2 0 0 0 2 2h5a2 2 0 0 0 2-2V4a2 2 0 0 0-2-2h-5Zm0 2h5v5h-5V4ZM5 5.5a.5.5 0 0 1 .5-.5h2a.5.5 0 0 1 .5.5v2a.5.5 0 0 1-.5.5h-2a.5.5 0 0 1-.5-.5v-2ZM16.5 5a.5.5 0 0 0-.5.5v2a.5.5 0 0 0 .5.5h2a.5.5 0 0 0 .5-.5v-2a.5.5 0 0 0-.5-.5h-2ZM5 16.5a.5.5 0 0 1 .5-.5h2a.5.5 0 0 1 .5.5v2a.5.5 0 0 1-.5.5h-2a.5.5 0 0 1-.5-.5v-2Zm8.5-3.5a.5.5 0 0 0-.5.5v2a.5.5 0 0 0 .5.5h2a.5.5 0 0 0 .5-.5v-2a.5.5 0 0 0-.5-.5h-2Zm2.5 3.5a.5.5 0 0 1 .5-.5h2a.5.5 0 0 1 .5.5v2a.5.5 0 0 1-.5.5h-2a.5.5 0 0 1-.5-.5v-2Zm3.5-3.5a.5.5 0 0 0-.5.5v2a.5.5 0 0 0 .5.5h2a.5.5 0 0 0 .5-.5v-2a.5.5 0 0 0-.5-.5h-2ZM13 19.5a.5.5 0 0 1 .5-.5h2a.5.5 0 0 1 .5.5v2a.5.5 0 0 1-.5.5h-2a.5.5 0 0 1-.5-.5v-2Zm6.5-.5a.5.5 0 0 0-.5.5v2a.5.5 0 0 0 .5.5h2a.5.5 0 0 0 .5-.5v-2a.5.5 0 0 0-.5-.5h-2Z" clip-rule="evenodd"/></svg>